<mxfile host="app.diagrams.net" modified="2023-11-08T13:51:49.915Z" agent="Mozilla/5.0 (Windows NT 10.0; Win64; x64) AppleWebKit/537.36 (KHTML, like Gecko) Chrome/118.0.0.0 Safari/537.36" etag="FqYj_ap7YxYuoFshXygD" version="22.0.8" type="github">
  <diagram id="C5RBs43oDa-KdzZeNtuy" name="Page-1">
    <mxGraphModel dx="2722" dy="1967" grid="1" gridSize="10" guides="1" tooltips="1" connect="1" arrows="1" fold="1" page="1" pageScale="1" pageWidth="827" pageHeight="1169" math="0" shadow="0">
      <root>
        <mxCell id="WIyWlLk6GJQsqaUBKTNV-0" />
        <mxCell id="WIyWlLk6GJQsqaUBKTNV-1" parent="WIyWlLk6GJQsqaUBKTNV-0" />
        <mxCell id="KO2VrwFwqGaNlMHXGD8G-8" style="edgeStyle=orthogonalEdgeStyle;rounded=0;orthogonalLoop=1;jettySize=auto;html=1;" parent="WIyWlLk6GJQsqaUBKTNV-1" source="KO2VrwFwqGaNlMHXGD8G-0" target="KO2VrwFwqGaNlMHXGD8G-46" edge="1">
          <mxGeometry relative="1" as="geometry">
            <mxPoint x="290" y="60" as="targetPoint" />
          </mxGeometry>
        </mxCell>
        <mxCell id="KO2VrwFwqGaNlMHXGD8G-53" style="edgeStyle=orthogonalEdgeStyle;rounded=0;orthogonalLoop=1;jettySize=auto;html=1;" parent="WIyWlLk6GJQsqaUBKTNV-1" source="KO2VrwFwqGaNlMHXGD8G-0" target="KO2VrwFwqGaNlMHXGD8G-44" edge="1">
          <mxGeometry relative="1" as="geometry" />
        </mxCell>
        <mxCell id="KO2VrwFwqGaNlMHXGD8G-0" value="InputView" style="rounded=0;whiteSpace=wrap;html=1;" parent="WIyWlLk6GJQsqaUBKTNV-1" vertex="1">
          <mxGeometry x="340" y="30" width="120" height="60" as="geometry" />
        </mxCell>
        <mxCell id="KO2VrwFwqGaNlMHXGD8G-54" style="edgeStyle=orthogonalEdgeStyle;rounded=0;orthogonalLoop=1;jettySize=auto;html=1;" parent="WIyWlLk6GJQsqaUBKTNV-1" source="KO2VrwFwqGaNlMHXGD8G-1" target="KO2VrwFwqGaNlMHXGD8G-44" edge="1">
          <mxGeometry relative="1" as="geometry" />
        </mxCell>
        <mxCell id="S85b0i-1O2o0kIJ1ZnP2-12" style="edgeStyle=orthogonalEdgeStyle;rounded=0;orthogonalLoop=1;jettySize=auto;html=1;" edge="1" parent="WIyWlLk6GJQsqaUBKTNV-1" source="KO2VrwFwqGaNlMHXGD8G-1" target="KO2VrwFwqGaNlMHXGD8G-44">
          <mxGeometry relative="1" as="geometry" />
        </mxCell>
        <mxCell id="S85b0i-1O2o0kIJ1ZnP2-13" style="edgeStyle=orthogonalEdgeStyle;rounded=0;orthogonalLoop=1;jettySize=auto;html=1;" edge="1" parent="WIyWlLk6GJQsqaUBKTNV-1" source="KO2VrwFwqGaNlMHXGD8G-1" target="KO2VrwFwqGaNlMHXGD8G-46">
          <mxGeometry relative="1" as="geometry" />
        </mxCell>
        <mxCell id="KO2VrwFwqGaNlMHXGD8G-1" value="OutputView" style="rounded=0;whiteSpace=wrap;html=1;" parent="WIyWlLk6GJQsqaUBKTNV-1" vertex="1">
          <mxGeometry x="340" y="90" width="120" height="60" as="geometry" />
        </mxCell>
        <mxCell id="KO2VrwFwqGaNlMHXGD8G-47" style="edgeStyle=orthogonalEdgeStyle;rounded=0;orthogonalLoop=1;jettySize=auto;html=1;" parent="WIyWlLk6GJQsqaUBKTNV-1" source="KO2VrwFwqGaNlMHXGD8G-2" target="KO2VrwFwqGaNlMHXGD8G-46" edge="1">
          <mxGeometry relative="1" as="geometry" />
        </mxCell>
        <mxCell id="KO2VrwFwqGaNlMHXGD8G-49" style="edgeStyle=orthogonalEdgeStyle;rounded=0;orthogonalLoop=1;jettySize=auto;html=1;" parent="WIyWlLk6GJQsqaUBKTNV-1" source="KO2VrwFwqGaNlMHXGD8G-2" target="KO2VrwFwqGaNlMHXGD8G-44" edge="1">
          <mxGeometry relative="1" as="geometry" />
        </mxCell>
        <mxCell id="KO2VrwFwqGaNlMHXGD8G-2" value="LotteryController" style="rounded=0;whiteSpace=wrap;html=1;" parent="WIyWlLk6GJQsqaUBKTNV-1" vertex="1">
          <mxGeometry x="354" y="-90" width="120" height="60" as="geometry" />
        </mxCell>
        <mxCell id="KO2VrwFwqGaNlMHXGD8G-24" style="edgeStyle=orthogonalEdgeStyle;rounded=0;orthogonalLoop=1;jettySize=auto;html=1;" parent="WIyWlLk6GJQsqaUBKTNV-1" source="KO2VrwFwqGaNlMHXGD8G-11" target="KO2VrwFwqGaNlMHXGD8G-16" edge="1">
          <mxGeometry relative="1" as="geometry" />
        </mxCell>
        <mxCell id="KO2VrwFwqGaNlMHXGD8G-11" value="Lottery&lt;br&gt;AnswerCheck&lt;br&gt;Service" style="rounded=0;whiteSpace=wrap;html=1;" parent="WIyWlLk6GJQsqaUBKTNV-1" vertex="1">
          <mxGeometry x="820" y="370" width="140" height="60" as="geometry" />
        </mxCell>
        <mxCell id="KO2VrwFwqGaNlMHXGD8G-22" style="edgeStyle=orthogonalEdgeStyle;rounded=0;orthogonalLoop=1;jettySize=auto;html=1;entryX=1;entryY=0.5;entryDx=0;entryDy=0;" parent="WIyWlLk6GJQsqaUBKTNV-1" source="KO2VrwFwqGaNlMHXGD8G-12" target="KO2VrwFwqGaNlMHXGD8G-15" edge="1">
          <mxGeometry relative="1" as="geometry" />
        </mxCell>
        <mxCell id="S85b0i-1O2o0kIJ1ZnP2-48" style="edgeStyle=orthogonalEdgeStyle;rounded=0;orthogonalLoop=1;jettySize=auto;html=1;entryX=1;entryY=0.5;entryDx=0;entryDy=0;" edge="1" parent="WIyWlLk6GJQsqaUBKTNV-1" source="KO2VrwFwqGaNlMHXGD8G-12" target="S85b0i-1O2o0kIJ1ZnP2-47">
          <mxGeometry relative="1" as="geometry" />
        </mxCell>
        <mxCell id="KO2VrwFwqGaNlMHXGD8G-12" value="Lottery&lt;br&gt;AnswerNumber&lt;br&gt;Service" style="rounded=0;whiteSpace=wrap;html=1;" parent="WIyWlLk6GJQsqaUBKTNV-1" vertex="1">
          <mxGeometry x="250" y="280" width="140" height="60" as="geometry" />
        </mxCell>
        <mxCell id="KO2VrwFwqGaNlMHXGD8G-15" value="Lotto&lt;br style=&quot;border-color: var(--border-color);&quot;&gt;AnswerNumber&lt;br&gt;Validator" style="rounded=0;whiteSpace=wrap;html=1;" parent="WIyWlLk6GJQsqaUBKTNV-1" vertex="1">
          <mxGeometry x="150" y="450" width="140" height="60" as="geometry" />
        </mxCell>
        <mxCell id="S85b0i-1O2o0kIJ1ZnP2-129" style="edgeStyle=none;curved=1;rounded=0;orthogonalLoop=1;jettySize=auto;html=1;fontSize=12;startSize=8;endSize=8;" edge="1" parent="WIyWlLk6GJQsqaUBKTNV-1" source="KO2VrwFwqGaNlMHXGD8G-16" target="S85b0i-1O2o0kIJ1ZnP2-125">
          <mxGeometry relative="1" as="geometry" />
        </mxCell>
        <mxCell id="KO2VrwFwqGaNlMHXGD8G-16" value="Winning&lt;br&gt;Money&lt;br&gt;Calculator" style="rounded=0;whiteSpace=wrap;html=1;" parent="WIyWlLk6GJQsqaUBKTNV-1" vertex="1">
          <mxGeometry x="910" y="470" width="120" height="60" as="geometry" />
        </mxCell>
        <mxCell id="S85b0i-1O2o0kIJ1ZnP2-126" style="edgeStyle=none;curved=1;rounded=0;orthogonalLoop=1;jettySize=auto;html=1;fontSize=12;startSize=8;endSize=8;" edge="1" parent="WIyWlLk6GJQsqaUBKTNV-1" source="KO2VrwFwqGaNlMHXGD8G-18" target="S85b0i-1O2o0kIJ1ZnP2-125">
          <mxGeometry relative="1" as="geometry" />
        </mxCell>
        <mxCell id="KO2VrwFwqGaNlMHXGD8G-18" value="Winning&lt;br&gt;Policy" style="rounded=0;whiteSpace=wrap;html=1;" parent="WIyWlLk6GJQsqaUBKTNV-1" vertex="1">
          <mxGeometry x="750" y="570" width="120" height="60" as="geometry" />
        </mxCell>
        <mxCell id="KO2VrwFwqGaNlMHXGD8G-23" style="edgeStyle=orthogonalEdgeStyle;rounded=0;orthogonalLoop=1;jettySize=auto;html=1;" parent="WIyWlLk6GJQsqaUBKTNV-1" source="KO2VrwFwqGaNlMHXGD8G-11" target="KO2VrwFwqGaNlMHXGD8G-18" edge="1">
          <mxGeometry relative="1" as="geometry">
            <mxPoint x="810" y="470" as="targetPoint" />
          </mxGeometry>
        </mxCell>
        <mxCell id="S85b0i-1O2o0kIJ1ZnP2-34" style="edgeStyle=orthogonalEdgeStyle;rounded=0;orthogonalLoop=1;jettySize=auto;html=1;" edge="1" parent="WIyWlLk6GJQsqaUBKTNV-1" source="KO2VrwFwqGaNlMHXGD8G-33" target="KO2VrwFwqGaNlMHXGD8G-64">
          <mxGeometry relative="1" as="geometry" />
        </mxCell>
        <mxCell id="S85b0i-1O2o0kIJ1ZnP2-83" style="edgeStyle=orthogonalEdgeStyle;rounded=0;orthogonalLoop=1;jettySize=auto;html=1;" edge="1" parent="WIyWlLk6GJQsqaUBKTNV-1" source="KO2VrwFwqGaNlMHXGD8G-33" target="S85b0i-1O2o0kIJ1ZnP2-82">
          <mxGeometry relative="1" as="geometry" />
        </mxCell>
        <mxCell id="KO2VrwFwqGaNlMHXGD8G-33" value="Lottery&lt;br style=&quot;border-color: var(--border-color);&quot;&gt;Count&lt;br style=&quot;border-color: var(--border-color);&quot;&gt;Service" style="rounded=0;whiteSpace=wrap;html=1;" parent="WIyWlLk6GJQsqaUBKTNV-1" vertex="1">
          <mxGeometry x="-200" y="-170" width="120" height="60" as="geometry" />
        </mxCell>
        <mxCell id="S85b0i-1O2o0kIJ1ZnP2-24" style="edgeStyle=orthogonalEdgeStyle;rounded=0;orthogonalLoop=1;jettySize=auto;html=1;" edge="1" parent="WIyWlLk6GJQsqaUBKTNV-1" source="KO2VrwFwqGaNlMHXGD8G-34" target="KO2VrwFwqGaNlMHXGD8G-37">
          <mxGeometry relative="1" as="geometry">
            <mxPoint x="154" y="-175" as="sourcePoint" />
            <Array as="points">
              <mxPoint x="154" y="-135" />
              <mxPoint x="154" y="-220" />
            </Array>
          </mxGeometry>
        </mxCell>
        <mxCell id="S85b0i-1O2o0kIJ1ZnP2-26" style="edgeStyle=orthogonalEdgeStyle;rounded=0;orthogonalLoop=1;jettySize=auto;html=1;entryX=0;entryY=0.5;entryDx=0;entryDy=0;" edge="1" parent="WIyWlLk6GJQsqaUBKTNV-1" source="KO2VrwFwqGaNlMHXGD8G-34" target="KO2VrwFwqGaNlMHXGD8G-35">
          <mxGeometry relative="1" as="geometry" />
        </mxCell>
        <mxCell id="KO2VrwFwqGaNlMHXGD8G-34" value="Lottery&lt;br&gt;Issue&lt;br&gt;Service" style="rounded=0;whiteSpace=wrap;html=1;" parent="WIyWlLk6GJQsqaUBKTNV-1" vertex="1">
          <mxGeometry x="-20" y="-165" width="120" height="60" as="geometry" />
        </mxCell>
        <mxCell id="S85b0i-1O2o0kIJ1ZnP2-27" style="edgeStyle=orthogonalEdgeStyle;rounded=0;orthogonalLoop=1;jettySize=auto;html=1;" edge="1" parent="WIyWlLk6GJQsqaUBKTNV-1" source="KO2VrwFwqGaNlMHXGD8G-35" target="S85b0i-1O2o0kIJ1ZnP2-25">
          <mxGeometry relative="1" as="geometry" />
        </mxCell>
        <mxCell id="S85b0i-1O2o0kIJ1ZnP2-30" style="edgeStyle=orthogonalEdgeStyle;rounded=0;orthogonalLoop=1;jettySize=auto;html=1;" edge="1" parent="WIyWlLk6GJQsqaUBKTNV-1" source="KO2VrwFwqGaNlMHXGD8G-35" target="S85b0i-1O2o0kIJ1ZnP2-28">
          <mxGeometry relative="1" as="geometry" />
        </mxCell>
        <mxCell id="KO2VrwFwqGaNlMHXGD8G-35" value="Lotto" style="rounded=0;whiteSpace=wrap;html=1;" parent="WIyWlLk6GJQsqaUBKTNV-1" vertex="1">
          <mxGeometry x="64" y="-340" width="120" height="60" as="geometry" />
        </mxCell>
        <mxCell id="S85b0i-1O2o0kIJ1ZnP2-41" style="edgeStyle=orthogonalEdgeStyle;rounded=0;orthogonalLoop=1;jettySize=auto;html=1;" edge="1" parent="WIyWlLk6GJQsqaUBKTNV-1" source="KO2VrwFwqGaNlMHXGD8G-37" target="KO2VrwFwqGaNlMHXGD8G-35">
          <mxGeometry relative="1" as="geometry" />
        </mxCell>
        <mxCell id="KO2VrwFwqGaNlMHXGD8G-37" value="LottoIssuer" style="rounded=0;whiteSpace=wrap;html=1;" parent="WIyWlLk6GJQsqaUBKTNV-1" vertex="1">
          <mxGeometry x="190" y="-260" width="120" height="60" as="geometry" />
        </mxCell>
        <mxCell id="KO2VrwFwqGaNlMHXGD8G-65" style="edgeStyle=orthogonalEdgeStyle;rounded=0;orthogonalLoop=1;jettySize=auto;html=1;" parent="WIyWlLk6GJQsqaUBKTNV-1" source="KO2VrwFwqGaNlMHXGD8G-33" target="KO2VrwFwqGaNlMHXGD8G-42" edge="1">
          <mxGeometry relative="1" as="geometry">
            <mxPoint x="-240" y="-230" as="sourcePoint" />
          </mxGeometry>
        </mxCell>
        <mxCell id="S85b0i-1O2o0kIJ1ZnP2-122" style="edgeStyle=none;curved=1;rounded=0;orthogonalLoop=1;jettySize=auto;html=1;fontSize=12;startSize=8;endSize=8;" edge="1" parent="WIyWlLk6GJQsqaUBKTNV-1" source="KO2VrwFwqGaNlMHXGD8G-42" target="S85b0i-1O2o0kIJ1ZnP2-121">
          <mxGeometry relative="1" as="geometry" />
        </mxCell>
        <mxCell id="KO2VrwFwqGaNlMHXGD8G-42" value="Lotto&lt;br&gt;Count&lt;br&gt;Calculator" style="rounded=0;whiteSpace=wrap;html=1;" parent="WIyWlLk6GJQsqaUBKTNV-1" vertex="1">
          <mxGeometry x="-200" y="-280" width="120" height="60" as="geometry" />
        </mxCell>
        <mxCell id="KO2VrwFwqGaNlMHXGD8G-45" style="edgeStyle=orthogonalEdgeStyle;rounded=0;orthogonalLoop=1;jettySize=auto;html=1;entryX=0.5;entryY=0;entryDx=0;entryDy=0;" parent="WIyWlLk6GJQsqaUBKTNV-1" source="KO2VrwFwqGaNlMHXGD8G-44" target="KO2VrwFwqGaNlMHXGD8G-12" edge="1">
          <mxGeometry relative="1" as="geometry">
            <Array as="points">
              <mxPoint x="590" y="230" />
              <mxPoint x="320" y="230" />
            </Array>
          </mxGeometry>
        </mxCell>
        <mxCell id="S85b0i-1O2o0kIJ1ZnP2-74" style="edgeStyle=orthogonalEdgeStyle;rounded=0;orthogonalLoop=1;jettySize=auto;html=1;entryX=0.5;entryY=1;entryDx=0;entryDy=0;" edge="1" parent="WIyWlLk6GJQsqaUBKTNV-1" source="KO2VrwFwqGaNlMHXGD8G-46" target="KO2VrwFwqGaNlMHXGD8G-34">
          <mxGeometry relative="1" as="geometry" />
        </mxCell>
        <mxCell id="KO2VrwFwqGaNlMHXGD8G-46" value="LotteryPurchase&lt;br&gt;Controller" style="rounded=0;whiteSpace=wrap;html=1;" parent="WIyWlLk6GJQsqaUBKTNV-1" vertex="1">
          <mxGeometry x="160" y="30" width="130" height="60" as="geometry" />
        </mxCell>
        <mxCell id="KO2VrwFwqGaNlMHXGD8G-58" value="" style="edgeStyle=orthogonalEdgeStyle;rounded=0;orthogonalLoop=1;jettySize=auto;html=1;" parent="WIyWlLk6GJQsqaUBKTNV-1" source="KO2VrwFwqGaNlMHXGD8G-2" target="KO2VrwFwqGaNlMHXGD8G-44" edge="1">
          <mxGeometry relative="1" as="geometry">
            <mxPoint x="460" y="60" as="sourcePoint" />
            <mxPoint x="757" y="150" as="targetPoint" />
          </mxGeometry>
        </mxCell>
        <mxCell id="S85b0i-1O2o0kIJ1ZnP2-3" style="edgeStyle=orthogonalEdgeStyle;rounded=0;orthogonalLoop=1;jettySize=auto;html=1;" edge="1" parent="WIyWlLk6GJQsqaUBKTNV-1" source="KO2VrwFwqGaNlMHXGD8G-44" target="KO2VrwFwqGaNlMHXGD8G-11">
          <mxGeometry relative="1" as="geometry">
            <Array as="points">
              <mxPoint x="640" y="200" />
              <mxPoint x="890" y="200" />
            </Array>
          </mxGeometry>
        </mxCell>
        <mxCell id="S85b0i-1O2o0kIJ1ZnP2-17" style="edgeStyle=orthogonalEdgeStyle;rounded=0;orthogonalLoop=1;jettySize=auto;html=1;" edge="1" parent="WIyWlLk6GJQsqaUBKTNV-1" source="KO2VrwFwqGaNlMHXGD8G-44" target="S85b0i-1O2o0kIJ1ZnP2-11">
          <mxGeometry relative="1" as="geometry">
            <mxPoint x="780" y="60" as="sourcePoint" />
          </mxGeometry>
        </mxCell>
        <mxCell id="S85b0i-1O2o0kIJ1ZnP2-70" style="edgeStyle=orthogonalEdgeStyle;rounded=0;orthogonalLoop=1;jettySize=auto;html=1;entryX=0.5;entryY=0;entryDx=0;entryDy=0;" edge="1" parent="WIyWlLk6GJQsqaUBKTNV-1" source="KO2VrwFwqGaNlMHXGD8G-44" target="S85b0i-1O2o0kIJ1ZnP2-65">
          <mxGeometry relative="1" as="geometry">
            <Array as="points">
              <mxPoint x="590" y="230" />
              <mxPoint x="40" y="230" />
            </Array>
          </mxGeometry>
        </mxCell>
        <mxCell id="S85b0i-1O2o0kIJ1ZnP2-119" style="edgeStyle=none;curved=1;rounded=0;orthogonalLoop=1;jettySize=auto;html=1;fontSize=12;startSize=8;endSize=8;" edge="1" parent="WIyWlLk6GJQsqaUBKTNV-1" source="KO2VrwFwqGaNlMHXGD8G-44" target="S85b0i-1O2o0kIJ1ZnP2-114">
          <mxGeometry relative="1" as="geometry">
            <mxPoint x="890" y="60" as="targetPoint" />
            <Array as="points">
              <mxPoint x="620" y="-50" />
            </Array>
          </mxGeometry>
        </mxCell>
        <mxCell id="KO2VrwFwqGaNlMHXGD8G-44" value="LotteryAnswer&lt;br&gt;Controller" style="rounded=0;whiteSpace=wrap;html=1;" parent="WIyWlLk6GJQsqaUBKTNV-1" vertex="1">
          <mxGeometry x="520" y="30" width="140" height="60" as="geometry" />
        </mxCell>
        <mxCell id="KO2VrwFwqGaNlMHXGD8G-63" style="edgeStyle=orthogonalEdgeStyle;rounded=0;orthogonalLoop=1;jettySize=auto;html=1;entryX=0.7;entryY=0.983;entryDx=0;entryDy=0;entryPerimeter=0;" parent="WIyWlLk6GJQsqaUBKTNV-1" source="KO2VrwFwqGaNlMHXGD8G-46" target="KO2VrwFwqGaNlMHXGD8G-33" edge="1">
          <mxGeometry relative="1" as="geometry">
            <Array as="points">
              <mxPoint x="-116" y="60" />
            </Array>
          </mxGeometry>
        </mxCell>
        <mxCell id="KO2VrwFwqGaNlMHXGD8G-64" value="CashValidator" style="rounded=0;whiteSpace=wrap;html=1;" parent="WIyWlLk6GJQsqaUBKTNV-1" vertex="1">
          <mxGeometry x="-370" y="-80" width="120" height="60" as="geometry" />
        </mxCell>
        <mxCell id="S85b0i-1O2o0kIJ1ZnP2-4" style="edgeStyle=orthogonalEdgeStyle;rounded=0;orthogonalLoop=1;jettySize=auto;html=1;" edge="1" parent="WIyWlLk6GJQsqaUBKTNV-1" source="KO2VrwFwqGaNlMHXGD8G-69" target="KO2VrwFwqGaNlMHXGD8G-70">
          <mxGeometry relative="1" as="geometry" />
        </mxCell>
        <mxCell id="S85b0i-1O2o0kIJ1ZnP2-6" style="edgeStyle=orthogonalEdgeStyle;rounded=0;orthogonalLoop=1;jettySize=auto;html=1;" edge="1" parent="WIyWlLk6GJQsqaUBKTNV-1" source="KO2VrwFwqGaNlMHXGD8G-69" target="S85b0i-1O2o0kIJ1ZnP2-5">
          <mxGeometry relative="1" as="geometry" />
        </mxCell>
        <mxCell id="KO2VrwFwqGaNlMHXGD8G-69" value="로또 구매" style="rounded=0;whiteSpace=wrap;html=1;" parent="WIyWlLk6GJQsqaUBKTNV-1" vertex="1">
          <mxGeometry x="-717" y="890" width="120" height="60" as="geometry" />
        </mxCell>
        <mxCell id="KO2VrwFwqGaNlMHXGD8G-70" value="로또 발행" style="rounded=0;whiteSpace=wrap;html=1;" parent="WIyWlLk6GJQsqaUBKTNV-1" vertex="1">
          <mxGeometry x="-617" y="760" width="120" height="60" as="geometry" />
        </mxCell>
        <mxCell id="S85b0i-1O2o0kIJ1ZnP2-19" style="edgeStyle=orthogonalEdgeStyle;rounded=0;orthogonalLoop=1;jettySize=auto;html=1;" edge="1" parent="WIyWlLk6GJQsqaUBKTNV-1" source="KO2VrwFwqGaNlMHXGD8G-72" target="S85b0i-1O2o0kIJ1ZnP2-9">
          <mxGeometry relative="1" as="geometry" />
        </mxCell>
        <mxCell id="S85b0i-1O2o0kIJ1ZnP2-21" style="edgeStyle=orthogonalEdgeStyle;rounded=0;orthogonalLoop=1;jettySize=auto;html=1;" edge="1" parent="WIyWlLk6GJQsqaUBKTNV-1" source="KO2VrwFwqGaNlMHXGD8G-72" target="S85b0i-1O2o0kIJ1ZnP2-18">
          <mxGeometry relative="1" as="geometry" />
        </mxCell>
        <mxCell id="KO2VrwFwqGaNlMHXGD8G-72" value="로또 당첨 결과" style="rounded=0;whiteSpace=wrap;html=1;" parent="WIyWlLk6GJQsqaUBKTNV-1" vertex="1">
          <mxGeometry x="-127" y="890" width="120" height="60" as="geometry" />
        </mxCell>
        <mxCell id="KO2VrwFwqGaNlMHXGD8G-77" style="edgeStyle=orthogonalEdgeStyle;rounded=0;orthogonalLoop=1;jettySize=auto;html=1;" parent="WIyWlLk6GJQsqaUBKTNV-1" source="KO2VrwFwqGaNlMHXGD8G-73" target="KO2VrwFwqGaNlMHXGD8G-72" edge="1">
          <mxGeometry relative="1" as="geometry" />
        </mxCell>
        <mxCell id="S85b0i-1O2o0kIJ1ZnP2-23" style="edgeStyle=orthogonalEdgeStyle;rounded=0;orthogonalLoop=1;jettySize=auto;html=1;" edge="1" parent="WIyWlLk6GJQsqaUBKTNV-1" source="KO2VrwFwqGaNlMHXGD8G-73" target="KO2VrwFwqGaNlMHXGD8G-69">
          <mxGeometry relative="1" as="geometry" />
        </mxCell>
        <mxCell id="S85b0i-1O2o0kIJ1ZnP2-62" style="edgeStyle=orthogonalEdgeStyle;rounded=0;orthogonalLoop=1;jettySize=auto;html=1;" edge="1" parent="WIyWlLk6GJQsqaUBKTNV-1" source="KO2VrwFwqGaNlMHXGD8G-73" target="S85b0i-1O2o0kIJ1ZnP2-51">
          <mxGeometry relative="1" as="geometry" />
        </mxCell>
        <mxCell id="KO2VrwFwqGaNlMHXGD8G-73" value="로또 게임" style="rounded=0;whiteSpace=wrap;html=1;" parent="WIyWlLk6GJQsqaUBKTNV-1" vertex="1">
          <mxGeometry x="-390" y="1005" width="120" height="60" as="geometry" />
        </mxCell>
        <mxCell id="S85b0i-1O2o0kIJ1ZnP2-5" value="티켓 개수 계산" style="rounded=0;whiteSpace=wrap;html=1;" vertex="1" parent="WIyWlLk6GJQsqaUBKTNV-1">
          <mxGeometry x="-827" y="760" width="120" height="60" as="geometry" />
        </mxCell>
        <mxCell id="S85b0i-1O2o0kIJ1ZnP2-7" value="로또 당첨번호 저장" style="rounded=0;whiteSpace=wrap;html=1;" vertex="1" parent="WIyWlLk6GJQsqaUBKTNV-1">
          <mxGeometry x="-457" y="760" width="120" height="60" as="geometry" />
        </mxCell>
        <mxCell id="S85b0i-1O2o0kIJ1ZnP2-9" value="로또 당첨 판단" style="rounded=0;whiteSpace=wrap;html=1;" vertex="1" parent="WIyWlLk6GJQsqaUBKTNV-1">
          <mxGeometry x="-127" y="760" width="120" height="60" as="geometry" />
        </mxCell>
        <mxCell id="S85b0i-1O2o0kIJ1ZnP2-11" value="Lottery&lt;br&gt;Rate&lt;br&gt;Service" style="rounded=0;whiteSpace=wrap;html=1;" vertex="1" parent="WIyWlLk6GJQsqaUBKTNV-1">
          <mxGeometry x="1180" y="370" width="140" height="60" as="geometry" />
        </mxCell>
        <mxCell id="S85b0i-1O2o0kIJ1ZnP2-18" value="로또 당첨 통계 계산" style="rounded=0;whiteSpace=wrap;html=1;" vertex="1" parent="WIyWlLk6GJQsqaUBKTNV-1">
          <mxGeometry x="83" y="760" width="120" height="60" as="geometry" />
        </mxCell>
        <mxCell id="S85b0i-1O2o0kIJ1ZnP2-25" value="LottoSizePolicy" style="rounded=0;whiteSpace=wrap;html=1;" vertex="1" parent="WIyWlLk6GJQsqaUBKTNV-1">
          <mxGeometry x="-20" y="-450" width="120" height="60" as="geometry" />
        </mxCell>
        <mxCell id="S85b0i-1O2o0kIJ1ZnP2-28" value="LottoNumberPolicy" style="rounded=0;whiteSpace=wrap;html=1;" vertex="1" parent="WIyWlLk6GJQsqaUBKTNV-1">
          <mxGeometry x="130" y="-450" width="120" height="60" as="geometry" />
        </mxCell>
        <mxCell id="S85b0i-1O2o0kIJ1ZnP2-47" value="Lotto&lt;br style=&quot;border-color: var(--border-color);&quot;&gt;AnswerNumber&lt;br&gt;Mapper" style="rounded=0;whiteSpace=wrap;html=1;" vertex="1" parent="WIyWlLk6GJQsqaUBKTNV-1">
          <mxGeometry x="150" y="370" width="140" height="60" as="geometry" />
        </mxCell>
        <mxCell id="S85b0i-1O2o0kIJ1ZnP2-63" style="edgeStyle=orthogonalEdgeStyle;rounded=0;orthogonalLoop=1;jettySize=auto;html=1;" edge="1" parent="WIyWlLk6GJQsqaUBKTNV-1" source="S85b0i-1O2o0kIJ1ZnP2-51" target="S85b0i-1O2o0kIJ1ZnP2-7">
          <mxGeometry relative="1" as="geometry" />
        </mxCell>
        <mxCell id="S85b0i-1O2o0kIJ1ZnP2-64" style="edgeStyle=orthogonalEdgeStyle;rounded=0;orthogonalLoop=1;jettySize=auto;html=1;" edge="1" parent="WIyWlLk6GJQsqaUBKTNV-1" source="S85b0i-1O2o0kIJ1ZnP2-51" target="S85b0i-1O2o0kIJ1ZnP2-52">
          <mxGeometry relative="1" as="geometry" />
        </mxCell>
        <mxCell id="S85b0i-1O2o0kIJ1ZnP2-51" value="로또 당첨 입력" style="rounded=0;whiteSpace=wrap;html=1;" vertex="1" parent="WIyWlLk6GJQsqaUBKTNV-1">
          <mxGeometry x="-390" y="900" width="120" height="60" as="geometry" />
        </mxCell>
        <mxCell id="S85b0i-1O2o0kIJ1ZnP2-52" value="로또 당첨번호 저장" style="rounded=0;whiteSpace=wrap;html=1;" vertex="1" parent="WIyWlLk6GJQsqaUBKTNV-1">
          <mxGeometry x="-307" y="760" width="120" height="60" as="geometry" />
        </mxCell>
        <mxCell id="S85b0i-1O2o0kIJ1ZnP2-72" style="edgeStyle=orthogonalEdgeStyle;rounded=0;orthogonalLoop=1;jettySize=auto;html=1;entryX=1;entryY=0.5;entryDx=0;entryDy=0;" edge="1" parent="WIyWlLk6GJQsqaUBKTNV-1" source="S85b0i-1O2o0kIJ1ZnP2-65" target="S85b0i-1O2o0kIJ1ZnP2-68">
          <mxGeometry relative="1" as="geometry" />
        </mxCell>
        <mxCell id="S85b0i-1O2o0kIJ1ZnP2-73" style="edgeStyle=orthogonalEdgeStyle;rounded=0;orthogonalLoop=1;jettySize=auto;html=1;entryX=1;entryY=0.5;entryDx=0;entryDy=0;" edge="1" parent="WIyWlLk6GJQsqaUBKTNV-1" source="S85b0i-1O2o0kIJ1ZnP2-65" target="S85b0i-1O2o0kIJ1ZnP2-66">
          <mxGeometry relative="1" as="geometry" />
        </mxCell>
        <mxCell id="S85b0i-1O2o0kIJ1ZnP2-65" value="Lottery&lt;br&gt;BonusNumber&lt;br&gt;Service" style="rounded=0;whiteSpace=wrap;html=1;" vertex="1" parent="WIyWlLk6GJQsqaUBKTNV-1">
          <mxGeometry x="-30" y="280" width="140" height="60" as="geometry" />
        </mxCell>
        <mxCell id="S85b0i-1O2o0kIJ1ZnP2-66" value="Lotto&lt;br style=&quot;border-color: var(--border-color);&quot;&gt;BonusNumber&lt;br&gt;Validator" style="rounded=0;whiteSpace=wrap;html=1;" vertex="1" parent="WIyWlLk6GJQsqaUBKTNV-1">
          <mxGeometry x="-137" y="450" width="140" height="60" as="geometry" />
        </mxCell>
        <mxCell id="S85b0i-1O2o0kIJ1ZnP2-68" value="Lotto&lt;br style=&quot;border-color: var(--border-color);&quot;&gt;BonusNumber&lt;br&gt;Mapper" style="rounded=0;whiteSpace=wrap;html=1;" vertex="1" parent="WIyWlLk6GJQsqaUBKTNV-1">
          <mxGeometry x="-137" y="370" width="140" height="60" as="geometry" />
        </mxCell>
        <mxCell id="S85b0i-1O2o0kIJ1ZnP2-78" style="edgeStyle=orthogonalEdgeStyle;rounded=0;orthogonalLoop=1;jettySize=auto;html=1;" edge="1" parent="WIyWlLk6GJQsqaUBKTNV-1" source="S85b0i-1O2o0kIJ1ZnP2-77" target="KO2VrwFwqGaNlMHXGD8G-46">
          <mxGeometry relative="1" as="geometry" />
        </mxCell>
        <mxCell id="S85b0i-1O2o0kIJ1ZnP2-79" style="edgeStyle=orthogonalEdgeStyle;rounded=0;orthogonalLoop=1;jettySize=auto;html=1;" edge="1" parent="WIyWlLk6GJQsqaUBKTNV-1" source="S85b0i-1O2o0kIJ1ZnP2-77" target="KO2VrwFwqGaNlMHXGD8G-44">
          <mxGeometry relative="1" as="geometry" />
        </mxCell>
        <mxCell id="S85b0i-1O2o0kIJ1ZnP2-77" value="User" style="rounded=0;whiteSpace=wrap;html=1;" vertex="1" parent="WIyWlLk6GJQsqaUBKTNV-1">
          <mxGeometry x="530" y="-170" width="120" height="60" as="geometry" />
        </mxCell>
        <mxCell id="S85b0i-1O2o0kIJ1ZnP2-80" value="&lt;pre style=&quot;background-color:#212121;color:#eeffff;font-family:&#39;Courier New&#39;,monospace;font-size:10.5pt;&quot;&gt; 금액에 대한 검증&lt;/pre&gt;" style="text;whiteSpace=wrap;html=1;" vertex="1" parent="WIyWlLk6GJQsqaUBKTNV-1">
          <mxGeometry x="-370" y="-20" width="140" height="60" as="geometry" />
        </mxCell>
        <mxCell id="S85b0i-1O2o0kIJ1ZnP2-81" value="&lt;pre style=&quot;background-color:#212121;color:#eeffff;font-family:&#39;Courier New&#39;,monospace;font-size:10.5pt;&quot;&gt;금액에 대해 매핑&lt;/pre&gt;" style="text;whiteSpace=wrap;html=1;" vertex="1" parent="WIyWlLk6GJQsqaUBKTNV-1">
          <mxGeometry x="-370" y="-350" width="150" height="70" as="geometry" />
        </mxCell>
        <mxCell id="S85b0i-1O2o0kIJ1ZnP2-82" value="CashMapper" style="rounded=0;whiteSpace=wrap;html=1;" vertex="1" parent="WIyWlLk6GJQsqaUBKTNV-1">
          <mxGeometry x="-370" y="-300" width="120" height="60" as="geometry" />
        </mxCell>
        <mxCell id="S85b0i-1O2o0kIJ1ZnP2-84" value="&lt;pre style=&quot;background-color:#212121;color:#eeffff;font-family:&#39;Courier New&#39;,monospace;font-size:10.5pt;&quot;&gt;티켓 가격에 따른 &lt;/pre&gt;&lt;pre style=&quot;background-color:#212121;color:#eeffff;font-family:&#39;Courier New&#39;,monospace;font-size:10.5pt;&quot;&gt;티켓 개수 계산&lt;/pre&gt;" style="text;whiteSpace=wrap;html=1;" vertex="1" parent="WIyWlLk6GJQsqaUBKTNV-1">
          <mxGeometry x="-110" y="-265" width="140" height="70" as="geometry" />
        </mxCell>
        <mxCell id="S85b0i-1O2o0kIJ1ZnP2-85" value="&lt;pre style=&quot;background-color:#212121;color:#eeffff;font-family:&#39;Courier New&#39;,monospace;font-size:10.5pt;&quot;&gt;티켓 처리&lt;/pre&gt;" style="text;whiteSpace=wrap;html=1;" vertex="1" parent="WIyWlLk6GJQsqaUBKTNV-1">
          <mxGeometry x="-230" y="-120" width="130" height="70" as="geometry" />
        </mxCell>
        <mxCell id="S85b0i-1O2o0kIJ1ZnP2-86" value="&lt;pre style=&quot;background-color:#212121;color:#eeffff;font-family:&#39;Courier New&#39;,monospace;font-size:10.5pt;&quot;&gt;로또 번호 개수 정책&lt;/pre&gt;" style="text;whiteSpace=wrap;html=1;" vertex="1" parent="WIyWlLk6GJQsqaUBKTNV-1">
          <mxGeometry x="-40" y="-510" width="170" height="70" as="geometry" />
        </mxCell>
        <mxCell id="S85b0i-1O2o0kIJ1ZnP2-87" value="&lt;pre style=&quot;background-color:#212121;color:#eeffff;font-family:&#39;Courier New&#39;,monospace;font-size:10.5pt;&quot;&gt;로또 번호 범위 정책&lt;/pre&gt;" style="text;whiteSpace=wrap;html=1;" vertex="1" parent="WIyWlLk6GJQsqaUBKTNV-1">
          <mxGeometry x="135" y="-510" width="170" height="70" as="geometry" />
        </mxCell>
        <mxCell id="S85b0i-1O2o0kIJ1ZnP2-88" value="&lt;pre style=&quot;background-color:#212121;color:#eeffff;font-family:&#39;Courier New&#39;,monospace;font-size:10.5pt;&quot;&gt;로또 번호 생성자&lt;/pre&gt;" style="text;whiteSpace=wrap;html=1;" vertex="1" parent="WIyWlLk6GJQsqaUBKTNV-1">
          <mxGeometry x="324" y="-260" width="150" height="70" as="geometry" />
        </mxCell>
        <mxCell id="S85b0i-1O2o0kIJ1ZnP2-89" value="&lt;pre style=&quot;background-color:#212121;color:#eeffff;font-family:&#39;Courier New&#39;,monospace;font-size:10.5pt;&quot;&gt;로또&lt;/pre&gt;" style="text;whiteSpace=wrap;html=1;" vertex="1" parent="WIyWlLk6GJQsqaUBKTNV-1">
          <mxGeometry x="190" y="-340" width="150" height="70" as="geometry" />
        </mxCell>
        <mxCell id="S85b0i-1O2o0kIJ1ZnP2-90" value="&lt;pre style=&quot;background-color:#212121;color:#eeffff;font-family:&#39;Courier New&#39;,monospace;font-size:10.5pt;&quot;&gt;로또 발행 처리&lt;/pre&gt;" style="text;whiteSpace=wrap;html=1;" vertex="1" parent="WIyWlLk6GJQsqaUBKTNV-1">
          <mxGeometry x="59" y="-110" width="130" height="70" as="geometry" />
        </mxCell>
        <mxCell id="S85b0i-1O2o0kIJ1ZnP2-92" value="&lt;pre style=&quot;background-color:#212121;color:#eeffff;font-family:&#39;Courier New&#39;,monospace;font-size:10.5pt;&quot;&gt;로또 구매 진행&lt;/pre&gt;" style="text;whiteSpace=wrap;html=1;" vertex="1" parent="WIyWlLk6GJQsqaUBKTNV-1">
          <mxGeometry x="73" y="50" width="130" height="70" as="geometry" />
        </mxCell>
        <mxCell id="S85b0i-1O2o0kIJ1ZnP2-93" value="&lt;pre style=&quot;background-color:#212121;color:#eeffff;font-family:&#39;JetBrains Mono&#39;,monospace;font-size:10.5pt;&quot;&gt;{&lt;span style=&quot;font-family:&#39;Courier New&#39;,monospace;&quot;&gt;구매한 여러개의 로또들&lt;/span&gt;},{&lt;span style=&quot;font-family:&#39;Courier New&#39;,monospace;&quot;&gt;구매액&lt;/span&gt;}&lt;span style=&quot;font-family:&#39;Courier New&#39;,monospace;&quot;&gt;을 가지고 있는 사용자&lt;/span&gt;&lt;/pre&gt;" style="text;whiteSpace=wrap;html=1;" vertex="1" parent="WIyWlLk6GJQsqaUBKTNV-1">
          <mxGeometry x="450" y="-220" width="420" height="70" as="geometry" />
        </mxCell>
        <mxCell id="S85b0i-1O2o0kIJ1ZnP2-94" value="&lt;pre style=&quot;background-color:#212121;color:#eeffff;font-family:&#39;Courier New&#39;,monospace;font-size:10.5pt;&quot;&gt; 로또 게임 진행&lt;/pre&gt;" style="text;whiteSpace=wrap;html=1;" vertex="1" parent="WIyWlLk6GJQsqaUBKTNV-1">
          <mxGeometry x="354" y="-140" width="140" height="70" as="geometry" />
        </mxCell>
        <mxCell id="S85b0i-1O2o0kIJ1ZnP2-95" value="&lt;pre style=&quot;background-color:#212121;color:#eeffff;font-family:&#39;Courier New&#39;,monospace;font-size:10.5pt;&quot;&gt;입력뷰&lt;/pre&gt;" style="text;whiteSpace=wrap;html=1;" vertex="1" parent="WIyWlLk6GJQsqaUBKTNV-1">
          <mxGeometry x="390" y="-20" width="80" height="70" as="geometry" />
        </mxCell>
        <mxCell id="S85b0i-1O2o0kIJ1ZnP2-96" value="&lt;pre style=&quot;background-color:#212121;color:#eeffff;font-family:&#39;Courier New&#39;,monospace;font-size:10.5pt;&quot;&gt;출력뷰&lt;/pre&gt;" style="text;whiteSpace=wrap;html=1;" vertex="1" parent="WIyWlLk6GJQsqaUBKTNV-1">
          <mxGeometry x="394" y="140" width="80" height="70" as="geometry" />
        </mxCell>
        <mxCell id="S85b0i-1O2o0kIJ1ZnP2-98" value="&lt;pre style=&quot;background-color:#212121;color:#eeffff;font-family:&#39;Courier New&#39;,monospace;font-size:10.5pt;&quot;&gt;로또 당첨 진행&lt;/pre&gt;" style="text;whiteSpace=wrap;html=1;" vertex="1" parent="WIyWlLk6GJQsqaUBKTNV-1">
          <mxGeometry x="600" y="-20" width="130" height="70" as="geometry" />
        </mxCell>
        <mxCell id="S85b0i-1O2o0kIJ1ZnP2-102" value="&lt;pre style=&quot;background-color:#212121;color:#eeffff;font-family:&#39;Courier New&#39;,monospace;font-size:10.5pt;&quot;&gt;계산 정책에 따른 이익률 계산&lt;/pre&gt;" style="text;whiteSpace=wrap;html=1;" vertex="1" parent="WIyWlLk6GJQsqaUBKTNV-1">
          <mxGeometry x="1030" y="320" width="240" height="70" as="geometry" />
        </mxCell>
        <mxCell id="S85b0i-1O2o0kIJ1ZnP2-104" value="&lt;pre style=&quot;background-color:#212121;color:#eeffff;font-family:&#39;Courier New&#39;,monospace;font-size:10.5pt;&quot;&gt;전체 상금 계산&lt;/pre&gt;" style="text;whiteSpace=wrap;html=1;" vertex="1" parent="WIyWlLk6GJQsqaUBKTNV-1">
          <mxGeometry x="920" y="515" width="160" height="70" as="geometry" />
        </mxCell>
        <mxCell id="S85b0i-1O2o0kIJ1ZnP2-105" value="&lt;pre style=&quot;background-color:#212121;color:#eeffff;font-family:&#39;Courier New&#39;,monospace;font-size:10.5pt;&quot;&gt;당첨 알고리즘&lt;/pre&gt;&lt;pre style=&quot;background-color:#212121;color:#eeffff;font-family:&#39;Courier New&#39;,monospace;font-size:10.5pt;&quot;&gt;:: 함수형 인터페이스&lt;/pre&gt;" style="text;whiteSpace=wrap;html=1;" vertex="1" parent="WIyWlLk6GJQsqaUBKTNV-1">
          <mxGeometry x="580" y="560" width="160" height="70" as="geometry" />
        </mxCell>
        <mxCell id="S85b0i-1O2o0kIJ1ZnP2-107" value="&lt;pre style=&quot;background-color:#212121;color:#eeffff;font-family:&#39;Courier New&#39;,monospace;font-size:10.5pt;&quot;&gt;로또 당첨 판단&lt;/pre&gt;" style="text;whiteSpace=wrap;html=1;" vertex="1" parent="WIyWlLk6GJQsqaUBKTNV-1">
          <mxGeometry x="697" y="370" width="130" height="70" as="geometry" />
        </mxCell>
        <mxCell id="S85b0i-1O2o0kIJ1ZnP2-108" value="&lt;pre style=&quot;background-color:#212121;color:#eeffff;font-family:&#39;Courier New&#39;,monospace;font-size:10.5pt;&quot;&gt;로또 당첨번호 처리&lt;/pre&gt;" style="text;whiteSpace=wrap;html=1;" vertex="1" parent="WIyWlLk6GJQsqaUBKTNV-1">
          <mxGeometry x="-130" y="230" width="160" height="70" as="geometry" />
        </mxCell>
        <mxCell id="S85b0i-1O2o0kIJ1ZnP2-109" value="&lt;pre style=&quot;background-color:#212121;color:#eeffff;font-family:&#39;Courier New&#39;,monospace;font-size:10.5pt;&quot;&gt;로또 당첨번호 검증&lt;/pre&gt;" style="text;whiteSpace=wrap;html=1;" vertex="1" parent="WIyWlLk6GJQsqaUBKTNV-1">
          <mxGeometry x="-280" y="350" width="160" height="70" as="geometry" />
        </mxCell>
        <mxCell id="S85b0i-1O2o0kIJ1ZnP2-110" value="&lt;pre style=&quot;background-color:#212121;color:#eeffff;font-family:&#39;Courier New&#39;,monospace;font-size:10.5pt;&quot;&gt;로또 당첨번호 매핑&lt;/pre&gt;" style="text;whiteSpace=wrap;html=1;" vertex="1" parent="WIyWlLk6GJQsqaUBKTNV-1">
          <mxGeometry x="-280" y="445" width="160" height="70" as="geometry" />
        </mxCell>
        <mxCell id="S85b0i-1O2o0kIJ1ZnP2-111" value="&lt;pre style=&quot;background-color:#212121;color:#eeffff;font-family:&#39;Courier New&#39;,monospace;font-size:10.5pt;&quot;&gt;로또 보너스번호 처리&lt;/pre&gt;" style="text;whiteSpace=wrap;html=1;" vertex="1" parent="WIyWlLk6GJQsqaUBKTNV-1">
          <mxGeometry x="390" y="240" width="180" height="70" as="geometry" />
        </mxCell>
        <mxCell id="S85b0i-1O2o0kIJ1ZnP2-112" value="&lt;pre style=&quot;background-color:#212121;color:#eeffff;font-family:&#39;Courier New&#39;,monospace;font-size:10.5pt;&quot;&gt;로또 보너스번호 검증&lt;/pre&gt;" style="text;whiteSpace=wrap;html=1;" vertex="1" parent="WIyWlLk6GJQsqaUBKTNV-1">
          <mxGeometry x="324" y="445" width="180" height="70" as="geometry" />
        </mxCell>
        <mxCell id="S85b0i-1O2o0kIJ1ZnP2-113" value="&lt;pre style=&quot;background-color:#212121;color:#eeffff;font-family:&#39;Courier New&#39;,monospace;font-size:10.5pt;&quot;&gt;로또 보너스번호 매핑&lt;/pre&gt;" style="text;whiteSpace=wrap;html=1;" vertex="1" parent="WIyWlLk6GJQsqaUBKTNV-1">
          <mxGeometry x="324" y="375" width="180" height="70" as="geometry" />
        </mxCell>
        <mxCell id="S85b0i-1O2o0kIJ1ZnP2-114" value="LotteryAnswer" style="rounded=0;whiteSpace=wrap;html=1;" vertex="1" parent="WIyWlLk6GJQsqaUBKTNV-1">
          <mxGeometry x="800" y="-50" width="140" height="60" as="geometry" />
        </mxCell>
        <mxCell id="S85b0i-1O2o0kIJ1ZnP2-121" value="CashPolicy" style="rounded=0;whiteSpace=wrap;html=1;" vertex="1" parent="WIyWlLk6GJQsqaUBKTNV-1">
          <mxGeometry x="-200" y="-450" width="120" height="60" as="geometry" />
        </mxCell>
        <mxCell id="S85b0i-1O2o0kIJ1ZnP2-123" value="&lt;pre style=&quot;background-color:#212121;color:#eeffff;font-family:&#39;Courier New&#39;,monospace;font-size:10.5pt;&quot;&gt;티켓 가격 정책&lt;/pre&gt;" style="text;whiteSpace=wrap;html=1;" vertex="1" parent="WIyWlLk6GJQsqaUBKTNV-1">
          <mxGeometry x="-200" y="-510" width="140" height="70" as="geometry" />
        </mxCell>
        <mxCell id="S85b0i-1O2o0kIJ1ZnP2-125" value="Winning&lt;br&gt;Policy&lt;br&gt;Condition&lt;br&gt;&amp;lt;&amp;lt;E&amp;gt;&amp;gt;" style="rounded=0;whiteSpace=wrap;html=1;" vertex="1" parent="WIyWlLk6GJQsqaUBKTNV-1">
          <mxGeometry x="827" y="690" width="130" height="80" as="geometry" />
        </mxCell>
        <mxCell id="S85b0i-1O2o0kIJ1ZnP2-127" value="&lt;pre style=&quot;background-color:#212121;color:#eeffff;font-family:&#39;Courier New&#39;,monospace;font-size:10.5pt;&quot;&gt; 우아한테크코스 당첨 조건&lt;/pre&gt;" style="text;whiteSpace=wrap;html=1;" vertex="1" parent="WIyWlLk6GJQsqaUBKTNV-1">
          <mxGeometry x="810" y="760" width="210" height="70" as="geometry" />
        </mxCell>
        <mxCell id="S85b0i-1O2o0kIJ1ZnP2-137" value="LotteryAnswer&lt;br&gt;Controller" style="rounded=0;whiteSpace=wrap;html=1;" vertex="1" parent="WIyWlLk6GJQsqaUBKTNV-1">
          <mxGeometry x="520" y="30" width="140" height="60" as="geometry" />
        </mxCell>
        <mxCell id="S85b0i-1O2o0kIJ1ZnP2-141" style="edgeStyle=orthogonalEdgeStyle;rounded=0;orthogonalLoop=1;jettySize=auto;html=1;" edge="1" parent="WIyWlLk6GJQsqaUBKTNV-1" source="S85b0i-1O2o0kIJ1ZnP2-139" target="S85b0i-1O2o0kIJ1ZnP2-65">
          <mxGeometry relative="1" as="geometry" />
        </mxCell>
        <mxCell id="S85b0i-1O2o0kIJ1ZnP2-142" style="edgeStyle=orthogonalEdgeStyle;rounded=0;orthogonalLoop=1;jettySize=auto;html=1;" edge="1" parent="WIyWlLk6GJQsqaUBKTNV-1" source="S85b0i-1O2o0kIJ1ZnP2-139" target="KO2VrwFwqGaNlMHXGD8G-12">
          <mxGeometry relative="1" as="geometry">
            <Array as="points">
              <mxPoint x="320" y="190" />
            </Array>
          </mxGeometry>
        </mxCell>
        <mxCell id="S85b0i-1O2o0kIJ1ZnP2-143" style="edgeStyle=orthogonalEdgeStyle;rounded=0;orthogonalLoop=1;jettySize=auto;html=1;" edge="1" parent="WIyWlLk6GJQsqaUBKTNV-1" source="S85b0i-1O2o0kIJ1ZnP2-139" target="KO2VrwFwqGaNlMHXGD8G-33">
          <mxGeometry relative="1" as="geometry" />
        </mxCell>
        <mxCell id="S85b0i-1O2o0kIJ1ZnP2-144" style="edgeStyle=orthogonalEdgeStyle;rounded=0;orthogonalLoop=1;jettySize=auto;html=1;" edge="1" parent="WIyWlLk6GJQsqaUBKTNV-1" source="S85b0i-1O2o0kIJ1ZnP2-139" target="KO2VrwFwqGaNlMHXGD8G-34">
          <mxGeometry relative="1" as="geometry" />
        </mxCell>
        <mxCell id="S85b0i-1O2o0kIJ1ZnP2-139" value="UserInput" style="rounded=0;whiteSpace=wrap;html=1;" vertex="1" parent="WIyWlLk6GJQsqaUBKTNV-1">
          <mxGeometry x="160" y="160" width="130" height="60" as="geometry" />
        </mxCell>
        <mxCell id="S85b0i-1O2o0kIJ1ZnP2-140" value="&lt;pre style=&quot;background-color:#212121;color:#eeffff;font-family:&#39;Courier New&#39;,monospace;font-size:10.5pt;&quot;&gt;사용자 입력 처리&lt;/pre&gt;" style="text;whiteSpace=wrap;html=1;" vertex="1" parent="WIyWlLk6GJQsqaUBKTNV-1">
          <mxGeometry x="110" y="110" width="130" height="70" as="geometry" />
        </mxCell>
      </root>
    </mxGraphModel>
  </diagram>
</mxfile>
